<?xml version="1.0" encoding="UTF-8"?>
<svg width="1200pt" height="1200pt" version="1.1" viewBox="0 0 1200 1200" xmlns="http://www.w3.org/2000/svg">
 <g>
  <path d="m142.24 975c16.535 27.883 40.066 50.961 68.262 66.949 28.199 15.992 60.086 24.336 92.5 24.215h594c43.363 0.007813 85.395-15.012 118.93-42.508 33.531-27.492 56.5-65.762 64.988-108.29 8.4922-42.523 1.9766-86.68-18.43-124.94l-297-557.25c-21.414-40.203-56.734-71.238-99.355-87.305-42.625-16.062-89.641-16.062-132.27 0-42.621 16.066-77.941 47.102-99.355 87.305l-297 557.25c-15.332 28.52-22.961 60.543-22.133 92.914s10.086 63.961 26.859 91.66zm61.5-149.4 297-557.29c12.855-24.102 34.039-42.703 59.602-52.332 25.562-9.6289 53.758-9.6289 79.32 0 25.562 9.6289 46.746 28.23 59.602 52.332l297 557.29c18.582 34.863 17.516 76.922-2.8164 110.8-20.328 33.879-56.938 54.609-96.445 54.613h-594c-39.465-0.035157-76.023-20.742-96.344-54.574-20.32-33.828-21.426-75.832-2.918-110.69z"/>
  <path d="m600 768.75c14.918 0 29.227-5.9258 39.773-16.477 10.551-10.547 16.477-24.855 16.477-39.773v-262.5c0-20.098-10.723-38.664-28.125-48.715-17.402-10.047-38.848-10.047-56.25 0-17.402 10.051-28.125 28.617-28.125 48.715v262.5c0 14.918 5.9258 29.227 16.477 39.773 10.547 10.551 24.855 16.477 39.773 16.477z"/>
  <path d="m560.21 902.25c5.2031 5.1953 11.32 9.3906 18.039 12.375 6.9453 2.668 14.312 4.0664 21.75 4.125 7.3086-0.023438 14.547-1.4219 21.336-4.125 6.8984-2.8672 13.156-7.0742 18.414-12.375 5.2227-5.3242 9.4141-11.566 12.375-18.414 2.7031-6.7891 4.1016-14.027 4.125-21.336 0.019531-3.6562-0.35938-7.3008-1.125-10.875-0.72266-3.6172-1.8555-7.1406-3.375-10.5-1.2461-3.4258-2.8789-6.6992-4.875-9.75-2.1875-3.0352-4.5703-5.9297-7.125-8.6641-10.777-10.098-24.996-15.719-39.77-15.719-14.77 0-28.988 5.6211-39.77 15.719-2.543 2.7344-4.9102 5.6289-7.0859 8.6641-1.9844 3.125-3.75 6.3828-5.2891 9.75-1.1953 3.4375-2.1836 6.9453-2.9609 10.5-0.76562 3.5742-1.1445 7.2188-1.125 10.875 0.03125 7.3047 1.4141 14.539 4.0859 21.336 2.9727 6.8398 7.168 13.078 12.375 18.414z"/>
 </g>
</svg>
