<?xml version="1.0" encoding="UTF-8"?>
<svg width="1200pt" height="1200pt" version="1.1" viewBox="0 0 1200 1200" xmlns="http://www.w3.org/2000/svg">
 <path d="m1044.3 195c-27.273-21.426-62.941-28.988-96.562-20.477l-502.31 125.48h-145.39c-49.711 0.058594-97.367 19.832-132.52 54.984-35.152 35.148-54.926 82.805-54.984 132.52v75c0.046875 36.441 10.715 72.078 30.695 102.55 19.977 30.477 48.406 54.469 81.805 69.047v222.15c0 46.891 25.016 90.219 65.625 113.66 40.609 23.449 90.641 23.449 131.25 0 40.609-23.445 65.625-66.773 65.625-113.66v-195.71l460.2 115.05v-0.003906c9.0039 2.25 18.246 3.3828 27.527 3.375 29.797-0.058594 58.352-11.938 79.402-33.027 21.051-21.094 32.871-49.672 32.871-79.473v-482.89c0.054688-34.621-15.906-67.32-43.238-88.574zm-631.76 761.25c0 20.098-10.723 38.664-28.125 48.715-17.402 10.047-38.848 10.047-56.25 0-17.402-10.051-28.125-28.617-28.125-48.715v-206.25h112.5zm600-189.82c0.011719 11.555-5.3086 22.473-14.414 29.586-9.1094 7.1172-20.988 9.6328-32.199 6.8242l-506.81-126.71c-2.9648-0.75-6.0156-1.1289-9.0742-1.125h-150c-29.836 0-58.453-11.852-79.551-32.949-21.098-21.098-32.949-49.715-32.949-79.551v-75c0-29.836 11.852-58.453 32.949-79.551 21.098-21.098 49.715-32.949 79.551-32.949h150c3.0586 0.003906 6.1094-0.375 9.0742-1.125l506.81-126.71c11.207-2.75 23.051-0.23828 32.176 6.8242 9.1172 7.1094 14.441 18.027 14.438 29.586z"/>
</svg>
