<?xml version="1.0" encoding="UTF-8"?>
<svg width="1200pt" height="1200pt" version="1.1" viewBox="0 0 1200 1200" xmlns="http://www.w3.org/2000/svg">
 <path d="m825.86 410.88c-9.8008 0.26562-19.117 4.332-25.977 11.336-9.7852 9.7852-77.934 79.824-147.84 151.61-58.973 60.566-103.37 105.98-123.98 127.05l-132.02-100.61v0.003906c-7.9805-6.1094-18.066-8.7891-28.031-7.4492-9.9648 1.3359-18.984 6.5859-25.07 14.586-6.0859 8-8.7383 18.094-7.3711 28.055 1.3672 9.9609 6.6406 18.965 14.66 25.027l158.7 120.91v0.003906c7.2695 5.5391 16.297 8.2539 25.418 7.6484 9.1172-0.60938 17.707-4.5 24.176-10.957 9.7852-9.7852 77.934-79.824 147.84-151.62 69.902-71.793 141.56-145.34 146.89-150.67v0.003906c7.3555-7.1094 11.516-16.895 11.527-27.121 0.015625-10.227-4.1172-20.023-11.453-27.152-7.3359-7.125-17.246-10.977-27.469-10.672z"/>
</svg>
