<?xml version="1.0" encoding="UTF-8"?>
<svg width="1200pt" height="1200pt" version="1.1" viewBox="0 0 1200 1200" xmlns="http://www.w3.org/2000/svg">
 <g>
  <path d="m600 412.5c-49.727 0-97.418 19.754-132.58 54.918-35.164 35.164-54.918 82.855-54.918 132.58s19.754 97.418 54.918 132.58c35.164 35.164 82.855 54.918 132.58 54.918s97.418-19.754 132.58-54.918c35.164-35.164 54.918-82.855 54.918-132.58-0.058594-49.711-19.832-97.367-54.984-132.52-35.148-35.152-82.805-54.926-132.52-54.984zm0 300c-29.836 0-58.453-11.852-79.551-32.949-21.098-21.098-32.949-49.715-32.949-79.551s11.852-58.453 32.949-79.551c21.098-21.098 49.715-32.949 79.551-32.949s58.453 11.852 79.551 32.949c21.098 21.098 32.949 49.715 32.949 79.551s-11.852 58.453-32.949 79.551c-21.098 21.098-49.715 32.949-79.551 32.949z"/>
  <path d="m1044.1 514.12-177.64-150.38c-74.352-63.203-168.76-97.91-266.34-97.91s-191.99 34.707-266.34 97.91l-177.82 150.38c-25.258 21.375-39.824 52.785-39.824 85.875s14.566 64.5 39.824 85.875l177.82 150.38c74.363 63.254 168.81 97.988 266.44 97.988s192.07-34.734 266.44-97.988l177.64-150.26c25.258-21.375 39.824-52.785 39.824-85.875 0-33.09-14.566-64.5-39.824-85.875zm-48.449 114.52-177.64 150.26v0.003906c-60.848 51.742-138.11 80.156-217.99 80.156s-157.14-28.414-217.99-80.156l-177.64-150.27c-8.4375-7.125-13.305-17.605-13.305-28.648s4.8672-21.523 13.305-28.648l177.64-150.26v-0.003906c60.84-51.758 138.11-80.18 217.99-80.18s157.15 28.422 217.99 80.18l177.64 150.26v0.003906c8.4375 7.125 13.305 17.605 13.305 28.648s-4.8672 21.523-13.305 28.648z"/>
 </g>
</svg>
