<?xml version="1.0" encoding="UTF-8"?>
<svg width="1200pt" height="1200pt" version="1.1" viewBox="0 0 1200 1200" xmlns="http://www.w3.org/2000/svg">
 <g>
  <path d="m412.95 588.38c-0.59375 9.9258 2.7773 19.68 9.375 27.121 6.5938 7.4375 15.875 11.957 25.801 12.555h2.2891c9.5664 0.015625 18.777-3.625 25.75-10.176 6.9727-6.5547 11.176-15.523 11.75-25.074 1.668-27.301 13.266-53.051 32.609-72.391 19.34-19.34 45.086-30.941 72.391-32.609 13.395-0.80469 25.348-8.6953 31.348-20.699 6.0039-12.004 5.1484-26.301-2.25-37.5-7.3945-11.199-20.203-17.605-33.598-16.801-45.664 2.7344-88.734 22.113-121.07 54.469s-51.688 75.441-54.395 121.11z"/>
  <path d="m155.74 685.95 81.414 69.039h-0.003906c7.5898 6.4297 17.422 9.582 27.336 8.7617 9.9102-0.82031 19.094-5.543 25.523-13.133 6.4297-7.5859 9.582-17.418 8.7617-27.332-0.82031-9.9102-5.543-19.094-13.133-25.523l-81.336-68.961c-8.3633-7.2188-13.172-17.715-13.172-28.762 0-11.047 4.8086-21.547 13.172-28.766l177.86-150c38.836-33.285 84.84-57.148 134.42-69.73 49.582-12.578 101.39-13.535 151.41-2.793 13.109 2.7734 26.703-1.6562 35.656-11.625 8.957-9.9648 11.918-23.953 7.7656-36.691-4.1523-12.742-14.789-22.297-27.898-25.07-61.188-13.125-124.58-11.957-185.24 3.4102-60.66 15.371-116.96 44.527-164.52 85.203l-177.86 150c-25.156 21.465-39.648 52.875-39.648 85.949 0 33.07 14.492 64.48 39.648 85.949z"/>
  <path d="m225 1012.5c9.9453-0.003906 19.48-3.9531 26.512-10.988l130.69-130.69c41.121 25.965 86.625 44.227 134.29 53.887 28.207 5.9727 56.965 8.9883 85.801 9 96.883-0.011719 190.57-34.66 264.15-97.688l177.86-150c25.156-21.465 39.648-52.875 39.648-85.949 0-33.07-14.492-64.48-39.648-85.949l-165.6-139.8 122.81-122.81c7.2344-6.9883 11.359-16.59 11.449-26.648 0.085937-10.055-3.8711-19.727-10.984-26.84-7.1133-7.1133-16.785-11.07-26.84-10.984-10.059 0.089844-19.66 4.2148-26.648 11.449l-750 750c-7.0312 7.0312-10.98 16.57-10.98 26.512 0 9.9453 3.9492 19.48 10.98 26.516 7.0312 7.0312 16.566 10.98 26.512 10.984zm770.7-441.3c8.3633 7.2188 13.172 17.715 13.172 28.762 0 11.047-4.8086 21.547-13.172 28.766l-177.86 150c-38.93 33.328-85.035 57.215-134.72 69.797-49.684 12.578-101.6 13.512-151.7 2.7266-33.156-6.6875-65.062-18.508-94.578-35.023l59.777-59.777c30.66 20.293 66.621 31.094 103.39 31.051 3.8789 0.085938 7.7617-0.0625 11.625-0.44922 45.238-2.5742 87.984-21.555 120.23-53.387 32.246-31.828 51.777-74.328 54.938-119.53 0.53516-4.6914 0.77344-9.4141 0.71094-14.137 0.03125-36.77-10.781-72.73-31.086-103.39l69.074-69.113zm-283.2 28.801c0.046875 2.3789-0.054688 4.7578-0.30078 7.125-1.7812 27.695-13.715 53.762-33.516 73.203-19.805 19.445-46.086 30.898-73.809 32.172h-2.625c-17.523 0.30859-34.879-3.4531-50.699-10.988l150-150c7.2422 15.137 10.984 31.707 10.949 48.488z"/>
 </g>
</svg>
