<?xml version="1.0" encoding="UTF-8"?>
<svg width="1200pt" height="1200pt" version="1.1" viewBox="0 0 1200 1200" xmlns="http://www.w3.org/2000/svg">
 <g>
  <path d="m225 1087.5h525c29.836 0 58.453-11.852 79.551-32.949 21.098-21.098 32.949-49.715 32.949-79.551v-112.5c-0.09375-74.988-22.652-148.23-64.762-210.27-42.109-62.047-101.84-110.05-171.49-137.84 36.895-28.852 63.867-68.496 77.156-113.41 13.285-44.914 12.227-92.852-3.0312-137.13s-43.953-82.699-82.086-109.89c-38.133-27.191-83.801-41.809-130.64-41.809-46.836 0-92.504 14.617-130.64 41.809-38.133 27.195-66.828 65.613-82.086 109.89-15.258 44.281-16.32 92.219-3.0312 137.13 13.289 44.91 40.262 84.555 77.156 113.41-69.707 27.738-129.5 75.727-171.66 137.78-42.168 62.051-64.766 135.32-64.887 210.34v112.5c0 29.836 11.852 58.453 32.949 79.551 21.098 21.098 49.715 32.949 79.551 32.949zm112.5-750c0-39.781 15.805-77.938 43.934-106.07s66.285-43.934 106.07-43.934 77.938 15.805 106.07 43.934 43.934 66.285 43.934 106.07-15.805 77.938-43.934 106.07-66.285 43.934-106.07 43.934-77.938-15.805-106.07-43.934-43.934-66.285-43.934-106.07zm-150 525c0-79.566 31.605-155.87 87.867-212.13 56.262-56.262 132.57-87.867 212.13-87.867s155.87 31.605 212.13 87.867c56.262 56.262 87.867 132.57 87.867 212.13v112.5c0 9.9453-3.9492 19.484-10.984 26.516-7.0312 7.0352-16.57 10.984-26.516 10.984h-525c-9.9453 0-19.484-3.9492-26.516-10.984-7.0352-7.0312-10.984-16.57-10.984-26.516z"/>
  <path d="m1050 225h-75v-75c0-13.398-7.1484-25.777-18.75-32.477-11.602-6.6992-25.898-6.6992-37.5 0-11.602 6.6992-18.75 19.078-18.75 32.477v75h-75c-13.398 0-25.777 7.1484-32.477 18.75-6.6992 11.602-6.6992 25.898 0 37.5 6.6992 11.602 19.078 18.75 32.477 18.75h75v75c0 13.398 7.1484 25.777 18.75 32.477 11.602 6.6992 25.898 6.6992 37.5 0 11.602-6.6992 18.75-19.078 18.75-32.477v-75h75c13.398 0 25.777-7.1484 32.477-18.75 6.6992-11.602 6.6992-25.898 0-37.5-6.6992-11.602-19.078-18.75-32.477-18.75z"/>
 </g>
</svg>
