<?xml version="1.0" encoding="UTF-8"?>
<svg width="1200pt" height="1200pt" version="1.1" viewBox="0 0 1200 1200" xmlns="http://www.w3.org/2000/svg">
 <g>
  <path d="m600 112.5c-129.29 0-253.29 51.363-344.71 142.79-91.422 91.426-142.79 215.42-142.79 344.71s51.363 253.29 142.79 344.71c91.426 91.422 215.42 142.79 344.71 142.79s253.29-51.363 344.71-142.79c91.422-91.426 142.79-215.42 142.79-344.71-0.14844-129.25-51.559-253.16-142.95-344.55s-215.3-142.8-344.55-142.95zm0 900c-109.4 0-214.32-43.461-291.68-120.82-77.359-77.355-120.82-182.28-120.82-291.68s43.461-214.32 120.82-291.68c77.355-77.359 182.28-120.82 291.68-120.82s214.32 43.461 291.68 120.82c77.359 77.355 120.82 182.28 120.82 291.68-0.12891 109.36-43.629 214.21-120.96 291.54-77.332 77.332-182.18 120.83-291.54 120.96z"/>
  <path d="m656.25 806.25c0 31.066-25.184 56.25-56.25 56.25s-56.25-25.184-56.25-56.25 25.184-56.25 56.25-56.25 56.25 25.184 56.25 56.25"/>
  <path d="m626.89 339.86c-43.777-7.9766-88.84 3.8945-123 32.41-34.164 28.516-53.902 70.727-53.883 115.23 0 13.398 7.1484 25.777 18.75 32.477 11.602 6.6992 25.898 6.6992 37.5 0 11.602-6.6992 18.75-19.078 18.75-32.477-0.019531-22.34 9.9219-43.523 27.113-57.785 17.191-14.266 39.848-20.121 61.801-15.977 14.836 2.8906 28.473 10.148 39.16 20.836 10.691 10.691 17.945 24.324 20.84 39.164 3.2148 16.938 0.49609 34.469-7.6992 49.641-8.1992 15.168-21.371 27.051-37.301 33.645-19.969 8.5234-36.945 22.797-48.773 41-11.828 18.207-17.969 39.52-17.641 61.227v15.75c0 13.398 7.1484 25.777 18.75 32.477 11.602 6.6992 25.898 6.6992 37.5 0 11.602-6.6992 18.75-19.078 18.75-32.477v-15.75c-0.27344-6.8398 1.4492-13.613 4.957-19.496 3.5117-5.8789 8.6523-10.609 14.805-13.617 31.766-13.039 58.082-36.602 74.543-66.738 16.461-30.133 22.062-65.012 15.871-98.785-5.6328-29.949-20.176-57.5-41.73-79.047-21.551-21.547-49.105-36.082-79.059-41.703z"/>
 </g>
</svg>
