<?xml version="1.0" encoding="UTF-8"?>
<svg width="1200pt" height="1200pt" version="1.1" viewBox="0 0 1200 1200" xmlns="http://www.w3.org/2000/svg">
 <g>
  <path d="m600 112.5c-129.29 0-253.29 51.363-344.71 142.79-91.422 91.426-142.79 215.42-142.79 344.71s51.363 253.29 142.79 344.71c91.426 91.422 215.42 142.79 344.71 142.79s253.29-51.363 344.71-142.79c91.422-91.426 142.79-215.42 142.79-344.71-0.14844-129.25-51.559-253.16-142.95-344.55s-215.3-142.8-344.55-142.95zm0 900c-109.4 0-214.32-43.461-291.68-120.82-77.359-77.355-120.82-182.28-120.82-291.68s43.461-214.32 120.82-291.68c77.355-77.359 182.28-120.82 291.68-120.82s214.32 43.461 291.68 120.82c77.359 77.355 120.82 182.28 120.82 291.68-0.12891 109.36-43.629 214.21-120.96 291.54-77.332 77.332-182.18 120.83-291.54 120.96z"/>
  <path d="m829.24 387.6c-34.895-22.664-76.582-32.488-117.92-27.797-41.34 4.6953-79.766 23.613-108.69 53.52l-2.625 2.6641-2.625-2.6641c-28.934-29.891-67.352-48.805-108.69-53.504-41.336-4.6992-83.02 5.1055-117.93 27.742-29.062 19.418-51.719 47.016-65.098 79.309-13.379 32.293-16.883 67.824-10.07 102.11 6.8164 34.281 23.645 65.773 48.355 90.496l195.23 195.23v-0.003906c16.16 16.078 38.027 25.102 60.824 25.102s44.664-9.0234 60.824-25.102l195.23-195.23v0.003906c24.711-24.719 41.539-56.207 48.352-90.484 6.8164-34.281 3.3125-69.809-10.066-102.1-13.383-32.289-36.035-59.883-65.098-79.293zm-26.25 218.85-195.23 195.23v-0.003907c-2.0664 2.0703-4.875 3.2344-7.8008 3.2344-2.9258 0-5.7305-1.1641-7.7969-3.2344l-195.23-195.23c-21.574-21.617-32.301-51.777-29.219-82.164 3.082-30.383 19.645-57.777 45.117-74.621 15.824-10.555 34.457-16.094 53.477-15.902 29.281 0.17969 57.309 11.902 78 32.625l29.137 29.137c7.0312 7.0312 16.57 10.98 26.512 10.98 9.9453 0 19.48-3.9492 26.516-10.98l29.137-29.137c16.715-17.371 38.867-28.504 62.781-31.555 23.914-3.0469 48.152 2.1719 68.691 14.793 25.477 16.852 42.039 44.254 45.121 74.645s-7.6445 60.559-29.219 82.18z"/>
 </g>
</svg>
