<?xml version="1.0" encoding="UTF-8"?>
<svg width="1200pt" height="1200pt" version="1.1" viewBox="0 0 1200 1200" xmlns="http://www.w3.org/2000/svg">
 <path d="m825 525h-412.5v-150c0-49.727 19.754-97.418 54.918-132.58 35.164-35.164 82.855-54.918 132.58-54.918s97.418 19.754 132.58 54.918c35.164 35.164 54.918 82.855 54.918 132.58v37.5c0 13.398 7.1484 25.777 18.75 32.477 11.602 6.6992 25.898 6.6992 37.5 0 11.602-6.6992 18.75-19.078 18.75-32.477v-37.5c0-69.621-27.656-136.39-76.883-185.62-49.23-49.227-116-76.883-185.62-76.883s-136.39 27.656-185.62 76.883c-49.227 49.23-76.883 116-76.883 185.62v153.75c-42.32 8.7031-80.348 31.73-107.67 65.203s-42.273 75.34-42.328 118.55v225c0.058594 49.711 19.832 97.367 54.984 132.52 35.148 35.152 82.805 54.926 132.52 54.984h450c49.711-0.058594 97.367-19.832 132.52-54.984 35.152-35.148 54.926-82.805 54.984-132.52v-225c-0.058594-49.711-19.832-97.367-54.984-132.52-35.148-35.152-82.805-54.926-132.52-54.984zm112.5 412.5c0 29.836-11.852 58.453-32.949 79.551-21.098 21.098-49.715 32.949-79.551 32.949h-450c-29.836 0-58.453-11.852-79.551-32.949-21.098-21.098-32.949-49.715-32.949-79.551v-225c0-29.836 11.852-58.453 32.949-79.551 21.098-21.098 49.715-32.949 79.551-32.949h450c29.836 0 58.453 11.852 79.551 32.949 21.098 21.098 32.949 49.715 32.949 79.551z"/>
</svg>
