<?xml version="1.0" encoding="UTF-8"?>
<svg width="1200pt" height="1200pt" version="1.1" viewBox="0 0 1200 1200" xmlns="http://www.w3.org/2000/svg">
 <g>
  <path d="m900 187.5h-600c-49.711 0.058594-97.367 19.832-132.52 54.984-35.152 35.148-54.926 82.805-54.984 132.52v450c0.058594 49.711 19.832 97.367 54.984 132.52 35.148 35.152 82.805 54.926 132.52 54.984h600c49.711-0.058594 97.367-19.832 132.52-54.984 35.152-35.148 54.926-82.805 54.984-132.52v-450c-0.058594-49.711-19.832-97.367-54.984-132.52-35.148-35.152-82.805-54.926-132.52-54.984zm112.5 637.5c0 29.836-11.852 58.453-32.949 79.551-21.098 21.098-49.715 32.949-79.551 32.949h-600c-29.836 0-58.453-11.852-79.551-32.949-21.098-21.098-32.949-49.715-32.949-79.551v-450c0-29.836 11.852-58.453 32.949-79.551 21.098-21.098 49.715-32.949 79.551-32.949h600c29.836 0 58.453 11.852 79.551 32.949 21.098 21.098 32.949 49.715 32.949 79.551z"/>
  <path d="m637.5 412.5c-59.672 0-116.9 23.707-159.1 65.902-42.195 42.195-65.902 99.426-65.902 159.1s23.707 116.9 65.902 159.1c42.195 42.195 99.426 65.902 159.1 65.902s116.9-23.707 159.1-65.902c42.195-42.195 65.902-99.426 65.902-159.1-0.058594-59.656-23.785-116.85-65.965-159.04-42.184-42.18-99.379-65.906-159.04-65.965zm0 375c-39.781 0-77.938-15.805-106.07-43.934s-43.934-66.285-43.934-106.07 15.805-77.938 43.934-106.07 66.285-43.934 106.07-43.934 77.938 15.805 106.07 43.934 43.934 66.285 43.934 106.07-15.805 77.938-43.934 106.07-66.285 43.934-106.07 43.934z"/>
  <path d="m900 375c0 20.711-16.789 37.5-37.5 37.5s-37.5-16.789-37.5-37.5 16.789-37.5 37.5-37.5 37.5 16.789 37.5 37.5"/>
  <path d="m412.5 450c13.398 0 25.777-7.1484 32.477-18.75 6.6992-11.602 6.6992-25.898 0-37.5-6.6992-11.602-19.078-18.75-32.477-18.75h-37.5v-37.5c0-13.398-7.1484-25.777-18.75-32.477-11.602-6.6992-25.898-6.6992-37.5 0-11.602 6.6992-18.75 19.078-18.75 32.477v37.5h-37.5c-13.398 0-25.777 7.1484-32.477 18.75-6.6992 11.602-6.6992 25.898 0 37.5 6.6992 11.602 19.078 18.75 32.477 18.75h37.5v37.5c0 13.398 7.1484 25.777 18.75 32.477 11.602 6.6992 25.898 6.6992 37.5 0 11.602-6.6992 18.75-19.078 18.75-32.477v-37.5z"/>
 </g>
</svg>
