<?xml version="1.0" encoding="UTF-8"?>
<svg width="1200pt" height="1200pt" version="1.1" viewBox="0 0 1200 1200" xmlns="http://www.w3.org/2000/svg">
 <g>
  <path d="m600 112.5c-129.29 0-253.29 51.363-344.71 142.79-91.422 91.426-142.79 215.42-142.79 344.71s51.363 253.29 142.79 344.71c91.426 91.422 215.42 142.79 344.71 142.79s253.29-51.363 344.71-142.79c91.422-91.426 142.79-215.42 142.79-344.71-0.14844-129.25-51.559-253.16-142.95-344.55s-215.3-142.8-344.55-142.95zm0 900c-109.4 0-214.32-43.461-291.68-120.82-77.359-77.355-120.82-182.28-120.82-291.68s43.461-214.32 120.82-291.68c77.355-77.359 182.28-120.82 291.68-120.82s214.32 43.461 291.68 120.82c77.359 77.355 120.82 182.28 120.82 291.68-0.12891 109.36-43.629 214.21-120.96 291.54-77.332 77.332-182.18 120.83-291.54 120.96z"/>
  <path d="m450 600c0 41.422-33.578 75-75 75s-75-33.578-75-75 33.578-75 75-75 75 33.578 75 75"/>
  <path d="m675 600c0 41.422-33.578 75-75 75s-75-33.578-75-75 33.578-75 75-75 75 33.578 75 75"/>
  <path d="m900 600c0 41.422-33.578 75-75 75s-75-33.578-75-75 33.578-75 75-75 75 33.578 75 75"/>
 </g>
</svg>
