<?xml version="1.0" encoding="UTF-8"?>
<svg width="1200pt" height="1200pt" version="1.1" viewBox="0 0 1200 1200" xmlns="http://www.w3.org/2000/svg">
 <g>
  <path d="m225 1087.5h675c29.836 0 58.453-11.852 79.551-32.949 21.098-21.098 32.949-49.715 32.949-79.551v-375c0-13.398-7.1484-25.777-18.75-32.477-11.602-6.6992-25.898-6.6992-37.5 0-11.602 6.6992-18.75 19.078-18.75 32.477v375c0 9.9453-3.9492 19.484-10.984 26.516-7.0312 7.0352-16.57 10.984-26.516 10.984h-675c-9.9453 0-19.484-3.9492-26.516-10.984-7.0352-7.0312-10.984-16.57-10.984-26.516v-675c0-9.9453 3.9492-19.484 10.984-26.516 7.0312-7.0352 16.57-10.984 26.516-10.984h375c13.398 0 25.777-7.1484 32.477-18.75 6.6992-11.602 6.6992-25.898 0-37.5-6.6992-11.602-19.078-18.75-32.477-18.75h-375c-29.836 0-58.453 11.852-79.551 32.949-21.098 21.098-32.949 49.715-32.949 79.551v675c0 29.836 11.852 58.453 32.949 79.551 21.098 21.098 49.715 32.949 79.551 32.949z"/>
  <path d="m359.06 644.32v159.11c0 9.9453 3.9492 19.484 10.984 26.516 7.0312 7.0352 16.57 10.984 26.516 10.984h159.11c9.9453-0.003906 19.48-3.9531 26.512-10.988l450.79-450.79v0.003906c21.102-21.102 32.957-49.719 32.957-79.559 0-29.84-11.855-58.457-32.957-79.555l-53.027-53.027c-21.426-20.461-49.91-31.879-79.535-31.879-29.629 0-58.113 11.418-79.539 31.879l-79.574 79.578-371.25 371.25c-7.0234 7.0195-10.977 16.543-10.988 26.473zm514.88-424.27c7.1367-6.8164 16.625-10.617 26.492-10.617 9.8711 0 19.359 3.8008 26.496 10.617l53.023 53.023c7.043 7.0352 11 16.578 11 26.531s-3.957 19.5-11 26.531l-53.023 53.023-53.176-52.91-52.914-53.137zm-439.88 439.95 333.75-333.75 105.94 105.94-333.75 333.75h-105.94z"/>
 </g>
</svg>
