<?xml version="1.0" encoding="UTF-8"?>
<svg width="1200pt" height="1200pt" version="1.1" viewBox="0 0 1200 1200" xmlns="http://www.w3.org/2000/svg">
 <path d="m600 112.5c-126.29-0.21094-247.71 48.676-338.61 136.33-90.91 87.656-144.18 207.22-148.57 333.43-4.3906 126.21 40.453 249.18 125.05 342.94 2.0703 3.1016 4.5977 5.8711 7.5 8.2148 60.703 65 138.1 112.07 223.74 136.07 85.637 23.992 176.23 23.992 261.87 0 85.637-23.996 163.04-71.066 223.74-136.07 2.8945-2.3672 5.4219-5.1484 7.5-8.25 84.59-93.77 129.42-216.75 125.02-342.95-4.4023-126.21-57.688-245.76-148.6-333.41-90.918-87.645-212.34-136.52-338.62-136.3zm-288.75 781.61c17.59-63.059 55.34-118.62 107.48-158.21 52.141-39.586 115.8-61.016 181.27-61.016s129.13 21.43 181.27 61.016c52.141 39.586 89.891 95.152 107.48 158.21-76.949 75.883-180.68 118.43-288.75 118.43s-211.8-42.547-288.75-118.43zm176.25-406.61c0-29.836 11.852-58.453 32.949-79.551 21.098-21.098 49.715-32.949 79.551-32.949s58.453 11.852 79.551 32.949c21.098 21.098 32.949 49.715 32.949 79.551s-11.852 58.453-32.949 79.551c-21.098 21.098-49.715 32.949-79.551 32.949s-58.453-11.852-79.551-32.949c-21.098-21.098-32.949-49.715-32.949-79.551zm456.64 339.38c-20.336-46.715-49.898-88.84-86.91-123.85-37.016-35.008-80.719-62.184-128.49-79.891 27.293-25.773 46.219-59.148 54.332-95.805 8.1133-36.652 5.0352-74.898-8.8359-109.78-13.867-34.887-37.891-64.805-68.953-85.883-31.062-21.082-67.742-32.348-105.28-32.348s-74.219 11.266-105.28 32.348c-31.062 21.078-55.086 50.996-68.953 85.883-13.871 34.883-16.949 73.129-8.8359 109.78 8.1133 36.656 27.039 70.031 54.332 95.805-47.77 17.707-91.473 44.883-128.49 79.891-37.012 35.008-66.574 77.133-86.91 123.85-55.047-83.289-78.016-183.72-64.648-282.66 13.363-98.938 62.156-189.67 137.33-255.37 75.172-65.703 171.62-101.91 271.46-101.91s196.29 36.207 271.46 101.91c75.172 65.699 123.96 156.43 137.33 255.37 13.367 98.938-9.6016 199.37-64.648 282.66z"/>
</svg>
