<?xml version="1.0" encoding="UTF-8"?>
<svg width="1200pt" height="1200pt" version="1.1" viewBox="0 0 1200 1200" xmlns="http://www.w3.org/2000/svg">
 <path d="m233.32 816.68c59.484 59.52 135.79 99.375 218.62 114.2 82.836 14.824 168.22 3.9023 244.66-31.293l139.39 139.43c36.266 36.27 89.125 50.43 138.67 37.156 49.543-13.273 88.238-51.969 101.51-101.51 13.273-49.543-0.88672-102.4-37.156-138.67l-139.39-139.43c42.016-91.746 48.926-195.72 19.422-292.22-29.5-96.5-93.367-178.83-179.5-231.4-86.137-52.57-188.56-71.727-287.88-53.84-99.309 17.887-188.62 71.574-251 150.89-62.383 79.316-93.516 178.75-87.496 279.48s48.77 195.76 120.15 267.08zm752.66 72.336c12.836 12.871 20.047 30.309 20.047 48.488s-7.2109 35.617-20.047 48.488c-13.105 12.391-30.453 19.293-48.488 19.293s-35.383-6.9023-48.488-19.293l-125.18-125.18c37.867-26.266 70.711-59.109 96.977-96.977zm-699.64-602.66c63.293-63.293 149.14-98.852 238.65-98.852 89.508 0 175.35 35.559 238.64 98.852 63.293 63.293 98.852 149.14 98.852 238.65s-35.559 175.36-98.852 238.65c-63.293 63.293-149.14 98.852-238.64 98.852-89.512 0-175.36-35.559-238.65-98.852-42.07-41.793-72.34-93.965-87.75-151.23-15.41-57.262-15.41-117.58 0-174.84 15.41-57.262 45.68-109.43 87.75-151.23z"/>
</svg>
