<?xml version="1.0" encoding="UTF-8"?>
<svg width="1200pt" height="1200pt" version="1.1" viewBox="0 0 1200 1200" xmlns="http://www.w3.org/2000/svg">
 <path d="m227.77 675h15.977v300c0 29.836 11.852 58.453 32.949 79.551 21.098 21.098 49.715 32.949 79.551 32.949h487.5c29.836 0 58.453-11.852 79.551-32.949 21.098-21.098 32.949-49.715 32.949-79.551v-300h15.977c30.281 0 59.285-12.211 80.453-33.871 21.164-21.656 32.707-50.934 32.012-81.211-0.69531-30.273-13.566-58.992-35.703-79.656l-346.65-323.51c-27.812-25.836-64.371-40.195-102.34-40.195s-74.523 14.359-102.34 40.195l-346.65 323.51c-22.137 20.664-35.008 49.383-35.703 79.656-0.69531 30.277 10.848 59.555 32.012 81.211 21.168 21.66 50.172 33.871 80.453 33.871zm297.23 337.5v-112.5c0-26.793 14.293-51.555 37.5-64.953 23.207-13.395 51.793-13.395 75 0 23.207 13.398 37.5 38.16 37.5 64.953v112.5zm-322.8-477.41 346.61-323.51c13.887-12.957 32.176-20.164 51.168-20.164 18.996 0 37.281 7.207 51.168 20.164l346.61 323.51c7.375 6.8867 11.664 16.453 11.902 26.539 0.23438 10.086-3.6016 19.84-10.648 27.062-7.043 7.2188-16.703 11.297-26.789 11.312h-53.477c-9.9453 0-19.484 3.9492-26.516 10.984-7.0352 7.0312-10.984 16.57-10.984 26.516v337.5c0 9.9453-3.9492 19.484-10.984 26.516-7.0312 7.0352-16.57 10.984-26.516 10.984h-93.75v-112.5c0-53.59-28.59-103.11-75-129.9-46.41-26.797-103.59-26.797-150 0-46.41 26.793-75 76.312-75 129.9v112.5h-93.75c-9.9453 0-19.484-3.9492-26.516-10.984-7.0352-7.0312-10.984-16.57-10.984-26.516v-337.5c0-9.9453-3.9492-19.484-10.984-26.516-7.0312-7.0352-16.57-10.984-26.516-10.984h-53.477c-10.09-0.003906-19.758-4.0742-26.809-11.297-7.0547-7.2188-10.898-16.977-10.664-27.066 0.23047-10.09 4.5195-19.66 11.898-26.551z"/>
</svg>
