<?xml version="1.0" encoding="UTF-8"?>
<svg width="1200pt" height="1200pt" version="1.1" viewBox="0 0 1200 1200" xmlns="http://www.w3.org/2000/svg">
 <path d="m1087.5 600c0.16797-94.41-27.078-186.84-78.434-266.05-51.355-79.223-124.61-141.82-210.86-180.21-86.254-38.387-181.8-50.898-275.03-36.02s-180.13 56.504-250.16 119.83c-70.023 63.324-120.16 145.62-144.3 236.89-24.148 91.27-21.277 187.59 8.2695 277.25 0.44141 1.5508 0.99609 3.0664 1.6484 4.5391 22.445 65.914 58.695 126.28 106.33 177.07 47.633 50.789 105.55 90.832 169.9 117.45 118.52 48.949 251.61 48.949 370.12 0 1.2734-0.33594 2.4766-0.9375 3.75-1.3867l0.89844-0.33594v-0.003906c2.1367-0.79688 4.1953-1.7852 6.1523-2.9609 23.422-10.359 45.988-22.547 67.5-36.449 0.60156-0.26172 1.0117-0.67578 1.5391-0.9375h-0.003906c91.609-59.578 160.64-148.11 196.09-251.48 0.73828-1.6133 1.3516-3.2812 1.8359-4.9883 16.324-49.09 24.68-100.48 24.75-152.21zm-487.5-412.5c80.562-0.40625 159.46 22.906 226.86 67.027 67.406 44.125 120.33 107.11 152.19 181.11 31.855 73.996 41.23 155.73 26.957 235.02-4.1641-2.8516-8.625-5.0234-12.977-7.5h0.003906c15.379-22.641 21.977-50.117 18.555-77.277-3.4219-27.156-16.629-52.137-37.148-70.258-20.516-18.121-46.938-28.137-74.309-28.176-27.375-0.039062-53.824 9.9062-74.395 27.965-20.566 18.062-33.844 43.008-37.344 70.156-3.5 27.148 3.0234 54.641 18.34 77.328-18.203 10.406-34.52 23.809-48.262 39.637-14.863-14.562-31.641-27.027-49.875-37.047 27.172-28.516 42.035-66.578 41.383-105.96-0.64844-39.383-16.766-76.93-44.867-104.53-28.102-27.602-65.93-43.039-105.32-42.984-39.391 0.050781-77.176 15.598-105.2 43.277-28.027 27.68-44.039 65.27-44.582 104.66-0.54297 39.383 14.43 77.402 41.68 105.84-18.414 10.102-35.324 22.723-50.25 37.5-3.0742-3.75-5.5859-7.5-9-10.988v0.003906c-11.84-11.336-25.086-21.102-39.41-29.062 15.375-22.629 21.98-50.086 18.578-77.23-3.4062-27.145-16.586-52.121-37.07-70.25-20.488-18.133-46.883-28.176-74.242-28.254-27.355-0.078126-53.805 9.8203-74.395 27.832-20.59 18.016-33.91 42.918-37.465 70.043-3.5586 27.125 2.8945 54.617 18.141 77.332-4.2734 2.5117-8.5117 5.1758-12.602 7.9883h0.003906c-14.301-79.293-4.9414-161.04 26.91-235.05 31.852-74.012 84.785-137.01 152.2-181.13 67.418-44.125 146.33-67.43 226.9-67.004zm262.5 412.5c0-9.9453 3.9492-19.484 10.984-26.516 7.0312-7.0352 16.57-10.984 26.516-10.984s19.484 3.9492 26.516 10.984c7.0352 7.0312 10.984 16.57 10.984 26.516s-3.9492 19.484-10.984 26.516c-7.0312 7.0352-16.57 10.984-26.516 10.984s-19.484-3.9492-26.516-10.984c-7.0352-7.0312-10.984-16.57-10.984-26.516zm-337.5-37.5c0-19.891 7.9023-38.969 21.969-53.031 14.062-14.066 33.141-21.969 53.031-21.969s38.969 7.9023 53.031 21.969c14.066 14.062 21.969 33.141 21.969 53.031s-7.9023 38.969-21.969 53.031c-14.062 14.066-33.141 21.969-53.031 21.969s-38.969-7.9023-53.031-21.969c-14.066-14.062-21.969-33.141-21.969-53.031zm-262.5 37.5c0-9.9453 3.9492-19.484 10.984-26.516 7.0312-7.0352 16.57-10.984 26.516-10.984s19.484 3.9492 26.516 10.984c7.0352 7.0312 10.984 16.57 10.984 26.516s-3.9492 19.484-10.984 26.516c-7.0312 7.0352-16.57 10.984-26.516 10.984s-19.484-3.9492-26.516-10.984c-7.0352-7.0312-10.984-16.57-10.984-26.516zm-45.977 150.98c20.977-24.262 51.406-38.285 83.477-38.477 29.84 0.023438 58.457 11.848 79.613 32.887 6.5156 6.7539 12.137 14.312 16.723 22.5-13.941 29.598-21.227 61.895-21.336 94.613v75h-11.25c-66.246-46.453-117.43-111.3-147.23-186.52zm234.82 233.36 0.003906-0.003906c-0.85937-3.0391-1.3125-6.1758-1.3516-9.3359v-112.5c0.058594-39.766 15.883-77.883 44-106s66.234-43.941 106-44c39.809-0.046875 78.012 15.691 106.24 43.762 9.0586 9.082 16.844 19.352 23.137 30.527 13.562 22.922 20.688 49.078 20.625 75.711v112.5c-0.039062 3.1602-0.49219 6.2969-1.3516 9.3359-95.543 37.551-201.75 37.551-297.3 0zm385.09-46.84h-11.438v-75c-0.078125-32.859-7.4141-65.293-21.488-94.988 17.66-29.668 47.961-49.582 82.199-54.023 34.238-4.4453 68.621 7.082 93.266 31.262 1.5 1.5742 3.1875 3.5234 4.8359 5.3633-29.703 75.555-80.949 140.71-147.38 187.39z"/>
</svg>
