<?xml version="1.0" encoding="UTF-8"?>
<svg width="1200pt" height="1200pt" version="1.1" viewBox="0 0 1200 1200" xmlns="http://www.w3.org/2000/svg">
 <g>
  <path d="m600 112.5c-129.29 0-253.29 51.363-344.71 142.79-91.422 91.426-142.79 215.42-142.79 344.71s51.363 253.29 142.79 344.71c91.426 91.422 215.42 142.79 344.71 142.79s253.29-51.363 344.71-142.79c91.422-91.426 142.79-215.42 142.79-344.71-0.14844-129.25-51.559-253.16-142.95-344.55s-215.3-142.8-344.55-142.95zm0 900c-109.4 0-214.32-43.461-291.68-120.82-77.359-77.355-120.82-182.28-120.82-291.68s43.461-214.32 120.82-291.68c77.355-77.359 182.28-120.82 291.68-120.82s214.32 43.461 291.68 120.82c77.359 77.355 120.82 182.28 120.82 291.68-0.12891 109.36-43.629 214.21-120.96 291.54-77.332 77.332-182.18 120.83-291.54 120.96z"/>
  <path d="m699.38 294.86c-12.828-24.18-34.035-42.848-59.641-52.516-25.609-9.668-53.859-9.668-79.469 0-25.605 9.668-46.812 28.336-59.641 52.516l-133.84 252.38c-17.547 32.945-17.547 72.465 0 105.41l133.84 252.38c12.828 24.18 34.035 42.852 59.641 52.516 25.609 9.668 53.859 9.668 79.469 0 25.605-9.6641 46.812-28.336 59.641-52.516l133.84-252.38c17.48-32.961 17.48-72.449 0-105.41zm67.5 322.69-133.76 252.45c-4.2773 8.0625-11.344 14.293-19.883 17.516-8.5391 3.2227-17.961 3.2227-26.496 0-8.5391-3.2227-15.609-9.4531-19.883-17.516l-133.84-252.41h-0.003906c-5.8242-10.984-5.8242-24.148 0-35.137l133.84-252.45c4.2734-8.0625 11.344-14.293 19.883-17.516 8.5352-3.2227 17.957-3.2227 26.496 0 8.5391 3.2227 15.605 9.4531 19.883 17.516l133.84 252.38c5.8398 10.996 5.8398 24.176 0 35.176z"/>
  <path d="m675 600c0 41.422-33.578 75-75 75s-75-33.578-75-75 33.578-75 75-75 75 33.578 75 75"/>
 </g>
</svg>
