<?xml version="1.0" encoding="UTF-8"?>
<svg width="1200pt" height="1200pt" version="1.1" viewBox="0 0 1200 1200" xmlns="http://www.w3.org/2000/svg">
 <g>
  <path d="m600 1087.5c129.29 0 253.29-51.363 344.71-142.79 91.422-91.426 142.79-215.42 142.79-344.71s-51.363-253.29-142.79-344.71c-91.426-91.422-215.42-142.79-344.71-142.79s-253.29 51.363-344.71 142.79c-91.422 91.426-142.79 215.42-142.79 344.71 0.14844 129.25 51.559 253.16 142.95 344.55s215.3 142.8 344.55 142.95zm0-900c109.4 0 214.32 43.461 291.68 120.82 77.359 77.355 120.82 182.28 120.82 291.68s-43.461 214.32-120.82 291.68c-77.355 77.359-182.28 120.82-291.68 120.82s-214.32-43.461-291.68-120.82c-77.359-77.355-120.82-182.28-120.82-291.68 0.12891-109.36 43.629-214.21 120.96-291.54 77.332-77.332 182.18-120.83 291.54-120.96z"/>
  <path d="m367.12 810c-4.9414 14.648-5.0312 30.504-0.25781 45.207 4.7773 14.703 14.164 27.48 26.77 36.43 12.418 9.2383 27.48 14.227 42.957 14.227s30.539-4.9883 42.957-14.227l119.32-88.352 121.57 88.352c16.746 12.219 37.898 16.746 58.18 12.453 20.281-4.293 37.781-17 48.145-34.953 10.363-17.953 12.605-39.465 6.1758-59.176l-47.176-140.77 121.73-88.273c16.75-12.172 27.551-30.875 29.715-51.465 2.1641-20.59-4.5117-41.133-18.363-56.516-13.855-15.387-33.586-24.172-54.289-24.172l-148.61 1.2383-46.461-142.84c-6.3906-19.703-20.844-35.77-39.762-44.195-18.922-8.4297-40.531-8.4297-59.453 0-18.918 8.4258-33.371 24.492-39.762 44.195l-44.586 141.6-150.3-0.003906c-20.703 0-40.434 8.7852-54.289 24.172-13.852 15.383-20.527 35.926-18.363 56.516 2.1641 20.59 12.965 39.293 29.715 51.465l120.86 86.25zm-31.5-286.27h150.3c15.434 0.023438 30.477-4.8477 42.965-13.918 12.488-9.0742 21.773-21.871 26.523-36.559l44.586-137.18 44.586 137.21v0.003906c4.75 14.684 14.035 27.484 26.523 36.555s27.531 13.945 42.965 13.918l149.18-3.5234-121.65 88.352v-0.003906c-12.492 9.0625-21.789 21.848-26.551 36.523-4.7656 14.676-4.75 30.484 0.035157 45.152l44.586 137.21-116.73-84.973c-12.484-9.0742-27.523-13.965-42.957-13.965-15.434 0-30.473 4.8906-42.957 13.965l-116.7 84.789 44.586-137.21 0.003906-0.003906c4.7852-14.668 4.8008-30.477 0.035157-45.152-4.7617-14.676-14.059-27.461-26.551-36.523z"/>
 </g>
</svg>
