<?xml version="1.0" encoding="UTF-8"?>
<svg width="1200pt" height="1200pt" version="1.1" viewBox="0 0 1200 1200" xmlns="http://www.w3.org/2000/svg">
 <g>
  <path d="m209.44 886.2c1.7617 1.7773 3.6953 3.375 5.7734 4.7617 33.773 29.828 77.23 46.367 122.29 46.539h131.25l101.25 135c7.082 9.4414 18.195 15 30 15s22.918-5.5586 30-15l101.25-135h131.25c49.711-0.058594 97.367-19.832 132.52-54.984 35.152-35.148 54.926-82.805 54.984-132.52v-450c-0.058594-49.711-19.832-97.367-54.984-132.52-35.148-35.152-82.805-54.926-132.52-54.984h-525c-49.711 0.058594-97.367 19.832-132.52 54.984-35.152 35.148-54.926 82.805-54.984 132.52v450c0.046875 25.562 5.3438 50.844 15.57 74.273 10.223 23.43 25.156 44.508 43.867 61.926zm653.06-23.699h-150c-11.805 0-22.918 5.5586-30 15l-82.5 109.99-82.5-109.99c-7.082-9.4414-18.195-15-30-15h-128.96c101.15-49.988 193.58-115.95 273.75-195.34 42.367-40.574 88.188-77.375 136.95-109.99 62.711-35.879 133.52-55.207 205.76-56.176v249c0 29.836-11.852 58.453-32.949 79.551-21.098 21.098-49.715 32.949-79.551 32.949zm-637.5-562.5c0-29.836 11.852-58.453 32.949-79.551 21.098-21.098 49.715-32.949 79.551-32.949h525c29.836 0 58.453 11.852 79.551 32.949 21.098 21.098 32.949 49.715 32.949 79.551v125.77c-85.832 1.0078-169.96 24.098-244.27 67.051-52.938 34.93-102.61 74.566-148.43 118.43-94.273 84.336-200.85 178.57-333.23 207.45-15.496-19.555-23.973-43.75-24.074-68.699z"/>
  <path d="m412.5 487.5c29.836 0 58.453-11.852 79.551-32.949 21.098-21.098 32.949-49.715 32.949-79.551s-11.852-58.453-32.949-79.551c-21.098-21.098-49.715-32.949-79.551-32.949s-58.453 11.852-79.551 32.949c-21.098 21.098-32.949 49.715-32.949 79.551s11.852 58.453 32.949 79.551c21.098 21.098 49.715 32.949 79.551 32.949zm0-150c9.9453 0 19.484 3.9492 26.516 10.984 7.0352 7.0312 10.984 16.57 10.984 26.516s-3.9492 19.484-10.984 26.516c-7.0312 7.0352-16.57 10.984-26.516 10.984s-19.484-3.9492-26.516-10.984c-7.0352-7.0312-10.984-16.57-10.984-26.516s3.9492-19.484 10.984-26.516c7.0312-7.0352 16.57-10.984 26.516-10.984z"/>
 </g>
</svg>
